<svg xmlns="http://www.w3.org/2000/svg" width="100" height="100" viewBox="0 0 40 40" version="1.1">
    <path d="" stroke="none" fill="#080404" fill-rule="evenodd" />
    <path
        d="M 0.443 1.287 C 0.172 1.994, 0.074 10.140, 0.225 19.388 L 0.500 36.203 5.500 38.101 C 12.157 40.627, 16.032 40.593, 16.710 38 C 17.068 36.632, 18.074 36, 19.894 36 C 21.358 36, 23.576 35.285, 24.825 34.410 C 26.798 33.028, 27.056 32.092, 26.797 27.239 C 26.400 19.777, 24.216 19.008, 23.805 26.185 C 23.507 31.378, 23.425 31.507, 20.250 31.813 L 17 32.127 17 18.763 C 17 9.413, 16.625 5.021, 15.750 4.137 C 14.745 3.121, 15.381 2.935, 19 3.187 L 23.500 3.500 23.805 8.815 C 24.009 12.387, 24.501 14.001, 25.305 13.737 C 26.922 13.204, 27.431 3.225, 25.933 1.419 C 24.315 -0.531, 1.187 -0.650, 0.443 1.287 M 3 18.274 L 3 33.683 7.104 34.913 C 9.361 35.589, 11.836 36.384, 12.604 36.678 C 13.761 37.122, 14 34.617, 14 22.056 L 14 6.898 10.750 5.569 C 8.963 4.838, 6.488 3.930, 5.250 3.552 L 3 2.865 3 18.274 M 31 11.171 C 31 11.815, 31.745 13.165, 32.655 14.171 C 34.243 15.926, 34.039 16, 27.655 16 C 22.406 16, 21 16.317, 21 17.500 C 21 18.683, 22.406 19, 27.655 19 C 34.039 19, 34.243 19.074, 32.655 20.829 C 30.671 23.021, 30.505 25, 32.304 25 C 33.815 25, 40 18.891, 40 17.399 C 40 16.002, 33.674 10, 32.202 10 C 31.541 10, 31 10.527, 31 11.171"
        stroke="none" fill="#040404" fill-rule="evenodd" />
</svg>